<?xml version="1.0" encoding="utf-8"?>
<!-- Generator: Adobe Illustrator 18.0.0, SVG Export Plug-In . SVG Version: 6.00 Build 0)  -->
<!DOCTYPE svg PUBLIC "-//W3C//DTD SVG 1.1//EN" "http://www.w3.org/Graphics/SVG/1.1/DTD/svg11.dtd">
<svg version="1.1" id="Calque_1" xmlns="http://www.w3.org/2000/svg" xmlns:xlink="http://www.w3.org/1999/xlink" x="0px" y="0px"
	 viewBox="0 0 850.4 566.9" enable-background="new 0 0 850.4 566.9" xml:space="preserve">
<g>
	<g>
		<g>
			<path d="M439.5,202.6c0,0,1.3,1,3.9,3c0.6,0.5,1.4,1,2.1,1.6c0.7,0.6,1.6,1.3,2.4,2.1c0.9,0.8,1.8,1.6,2.8,2.4
				c1,0.9,2,1.9,3.1,2.9c0.5,0.5,1.1,1,1.7,1.6c0.6,0.5,1.1,1.1,1.7,1.7c1.1,1.2,2.3,2.4,3.6,3.7c1.2,1.4,2.4,2.8,3.6,4.2
				c0.7,0.7,1.2,1.5,1.9,2.3c0.6,0.8,1.2,1.6,1.9,2.4c5,6.6,10.1,14.5,14.6,23.7c4.5,9.2,8.2,19.7,10.7,31.1
				c0.2,0.7,0.3,1.4,0.5,2.2c0.1,0.7,0.3,1.5,0.4,2.2c0.3,1.5,0.5,2.9,0.8,4.4c0.2,1.5,0.4,3,0.6,4.5c0.1,0.8,0.2,1.5,0.3,2.3
				c0.1,0.8,0.1,1.5,0.2,2.3c0.6,6.1,0.6,12.4,0.4,18.8c-0.1,1.6-0.2,3.2-0.3,4.8c-0.1,1.6-0.3,3.2-0.5,4.8l-0.3,2.4
				c-0.1,0.8-0.3,1.6-0.4,2.4c-0.3,1.6-0.5,3.2-0.8,4.9c-1.3,6.5-3,12.9-5.1,19.3c-2.3,6.3-4.8,12.6-7.9,18.6
				c-0.7,1.5-1.6,3-2.4,4.5l-1.2,2.2c-0.4,0.7-0.9,1.5-1.3,2.2l-2.7,4.4l-2.9,4.2c-4,5.6-8.3,10.9-13.1,15.8l-1.8,1.9
				c-0.6,0.6-1.2,1.2-1.8,1.8c-1.2,1.2-2.5,2.3-3.7,3.5c-2.6,2.2-5.1,4.5-7.8,6.5c-2.6,2.1-5.4,4-8.1,5.9c-1.4,0.9-2.8,1.8-4.2,2.7
				c-0.7,0.4-1.4,0.9-2.1,1.3l-2.2,1.2c-5.7,3.3-11.7,6.1-17.6,8.5c-1.5,0.6-3,1.1-4.5,1.7c-1.5,0.5-3,1-4.5,1.5
				c-0.8,0.2-1.5,0.5-2.2,0.7c-0.8,0.2-1.5,0.4-2.3,0.6c-1.5,0.4-3,0.8-4.5,1.2c-3,0.6-6,1.4-9,1.8c-1.5,0.2-3,0.5-4.5,0.7
				c-1.5,0.2-3,0.3-4.4,0.5c-1.5,0.2-2.9,0.3-4.4,0.4c-1.4,0.1-2.9,0.2-4.3,0.3c-1.4,0-2.9,0.1-4.3,0.1c-0.7,0-1.4,0-2.1,0.1
				c-0.7,0-1.4,0-2.1-0.1c-1.4,0-2.8-0.1-4.1-0.1c-1.4,0-2.7-0.2-4-0.3c-1.3-0.1-2.7-0.2-4-0.3c-1.3-0.2-2.6-0.3-3.9-0.5
				c-10.2-1.3-19.3-3.7-27.1-6.5c-2-0.6-3.8-1.4-5.6-2.1c-0.9-0.4-1.8-0.7-2.7-1c-0.8-0.4-1.7-0.8-2.5-1.1c-0.8-0.4-1.6-0.7-2.4-1.1
				c-0.4-0.2-0.8-0.3-1.2-0.5c-0.4-0.2-0.7-0.4-1.1-0.6c-1.5-0.8-2.9-1.5-4.2-2.2c-0.3-0.2-0.7-0.3-1-0.5c-0.3-0.2-0.6-0.4-0.9-0.5
				c-0.6-0.4-1.2-0.7-1.8-1c-1.1-0.7-2.2-1.3-3.2-1.9c-1.9-1.3-3.6-2.3-4.9-3.2c-1.4-0.8-2.3-1.6-3-2.1c-0.7-0.5-1-0.7-1-0.7
				l0.2-0.2c0,0,0.4,0.2,1,0.7c0.7,0.5,1.7,1.2,3.1,2c1.4,0.8,3,1.8,5,3c1,0.5,2.1,1.1,3.3,1.7c0.6,0.3,1.2,0.6,1.8,1
				c0.3,0.2,0.6,0.3,0.9,0.5c0.3,0.2,0.7,0.3,1,0.5c1.3,0.6,2.7,1.3,4.2,2c0.4,0.2,0.7,0.4,1.1,0.5c0.4,0.2,0.8,0.3,1.2,0.5
				c0.8,0.3,1.6,0.7,2.4,1c0.8,0.3,1.7,0.7,2.5,1.1c0.9,0.3,1.8,0.6,2.7,1c1.8,0.6,3.6,1.4,5.6,2c7.8,2.5,16.9,4.6,26.9,5.8
				c1.3,0.1,2.5,0.3,3.8,0.4c1.3,0.1,2.6,0.2,3.9,0.3c1.3,0.1,2.6,0.2,4,0.2c1.3,0,2.7,0,4,0c0.7,0,1.4,0,2,0c0.7,0,1.4-0.1,2.1-0.1
				c1.4,0,2.8-0.1,4.2-0.1c1.4-0.1,2.8-0.2,4.2-0.4c1.4-0.1,2.9-0.2,4.3-0.4c1.4-0.2,2.9-0.4,4.3-0.6c1.5-0.2,2.9-0.5,4.4-0.8
				c2.9-0.4,5.8-1.2,8.8-1.8c1.5-0.4,2.9-0.8,4.4-1.2c0.7-0.2,1.5-0.4,2.2-0.6c0.7-0.2,1.5-0.5,2.2-0.7c1.5-0.5,2.9-1,4.4-1.5
				c1.5-0.6,2.9-1.1,4.4-1.7c5.8-2.3,11.7-5,17.3-8.2l2.1-1.2c0.7-0.4,1.4-0.9,2.1-1.3c1.4-0.9,2.8-1.7,4.2-2.6
				c2.7-1.9,5.4-3.7,8-5.7c2.7-1.9,5.1-4.2,7.7-6.3c1.2-1.1,2.4-2.3,3.7-3.4c0.6-0.6,1.2-1.1,1.8-1.7l1.7-1.8c4.7-4.7,9-10,13-15.4
				l2.9-4.1l2.7-4.3c0.4-0.7,0.9-1.4,1.3-2.1l1.2-2.2c0.8-1.5,1.7-2.9,2.4-4.4c3.1-5.9,5.7-12.1,8-18.3c2.1-6.3,3.9-12.6,5.2-19
				c0.3-1.6,0.5-3.2,0.8-4.8c0.1-0.8,0.3-1.6,0.4-2.4l0.3-2.4c0.2-1.6,0.4-3.2,0.5-4.8c0.1-1.6,0.2-3.2,0.3-4.8
				c0.3-6.3,0.3-12.6-0.2-18.6c-0.1-0.8-0.1-1.5-0.2-2.3c-0.1-0.8-0.2-1.5-0.3-2.3c-0.2-1.5-0.4-3-0.5-4.5c-0.3-1.5-0.5-2.9-0.7-4.4
				c-0.1-0.7-0.2-1.5-0.4-2.2c-0.2-0.7-0.3-1.4-0.5-2.1c-2.4-11.4-6-21.8-10.4-31c-4.3-9.2-9.3-17.1-14.2-23.7
				c-0.6-0.8-1.2-1.6-1.8-2.4c-0.6-0.8-1.2-1.6-1.8-2.3c-1.2-1.5-2.4-2.9-3.6-4.3c-1.2-1.3-2.4-2.6-3.5-3.7
				c-0.6-0.6-1.1-1.2-1.6-1.7c-0.6-0.5-1.1-1.1-1.6-1.6c-1.1-1-2.1-2-3-2.9c-1-0.9-1.9-1.7-2.8-2.4c-0.9-0.8-1.7-1.5-2.4-2.1
				c-0.7-0.6-1.5-1.2-2.1-1.7c-2.5-2-3.8-3-3.8-3L439.5,202.6z"/>
		</g>
		<g>
			<path d="M505.3,269.8c0,0,0.1,0.5,0.4,1.3c0.2,0.9,0.6,2.2,1.1,3.9c0.5,1.7,1,3.8,1.6,6.3c0.3,1.3,0.6,2.6,0.9,4.1
				c0.3,1.5,0.5,3,0.8,4.6c1,6.5,2,14.6,2.1,23.8c0.1,9.2-0.6,19.7-2.7,30.9c-2.2,11.2-5.8,23-11.1,34.9c-0.6,1.5-1.4,2.9-2.1,4.4
				c-0.4,0.7-0.7,1.5-1.1,2.2l-0.5,1.1l-0.6,1.1c-1.6,2.9-3.2,5.9-5.1,8.8c-3.5,5.9-7.8,11.5-12.2,17.1c-2.4,2.7-4.6,5.5-7.1,8.1
				c-1.3,1.3-2.5,2.7-3.8,3.9c-1.3,1.3-2.6,2.5-4,3.8l-1,1l-1,0.9l-2.1,1.8c-1.4,1.2-2.8,2.4-4.3,3.5c-1.5,1.1-2.9,2.3-4.4,3.4
				c-1.5,1.1-3.1,2.1-4.6,3.2c-6.2,4.2-12.7,8.1-19.5,11.4c-6.8,3.3-13.9,6.3-21.1,8.5c-14.5,4.7-29.7,7.2-44.7,7.5
				c-1.9,0.1-3.7,0-5.6,0c-1.9,0-3.7,0-5.6-0.2c-1.9-0.1-3.7-0.2-5.6-0.4c-1.8-0.2-3.7-0.4-5.5-0.6c-7.3-0.9-14.5-2.2-21.4-4.2
				c-3.5-0.8-6.8-2.1-10.2-3.1c-1.7-0.6-3.3-1.2-4.9-1.8c-0.8-0.3-1.6-0.6-2.4-0.9c-0.8-0.3-1.6-0.7-2.4-1c-1.6-0.7-3.1-1.4-4.7-2.1
				c-1.5-0.7-3-1.5-4.5-2.3c-3-1.4-5.9-3.2-8.7-4.8c-0.7-0.4-1.4-0.8-2.1-1.3c-0.7-0.4-1.4-0.9-2.1-1.3c-1.4-0.9-2.7-1.7-4-2.6
				c-1.3-0.9-2.6-1.8-3.9-2.8c-0.6-0.5-1.3-0.9-1.9-1.4c-0.6-0.5-1.2-1-1.8-1.4c-2.4-1.9-4.8-3.7-7-5.8c-1.1-1-2.2-1.9-3.3-2.9
				c-1.1-1-2.1-2-3.1-3c-8.2-7.9-14.8-16.2-20-23.8c-5.2-7.7-9.1-14.7-11.8-20.8c-2.8-6-4.7-10.9-5.8-14.2c-0.3-0.8-0.6-1.6-0.8-2.2
				c-0.2-0.6-0.4-1.2-0.5-1.6c-0.3-0.9-0.4-1.3-0.4-1.3l0.3-0.1c0,0,0.2,0.4,0.5,1.3c0.1,0.4,0.3,1,0.6,1.6c0.3,0.6,0.5,1.4,0.9,2.2
				c1.3,3.3,3.3,8.1,6.2,14c2.9,5.9,7,12.8,12.3,20.3c5.3,7.5,12,15.4,20.2,23.1c1,1,2,2,3.1,2.9c1.1,0.9,2.2,1.9,3.3,2.8
				c2.2,2,4.6,3.7,7,5.6c0.6,0.5,1.2,0.9,1.8,1.4c0.6,0.4,1.3,0.9,1.9,1.3c1.3,0.9,2.5,1.8,3.8,2.7c1.3,0.9,2.7,1.7,4,2.5
				c0.7,0.4,1.4,0.8,2,1.3c0.7,0.4,1.4,0.9,2.1,1.2c2.8,1.5,5.6,3.2,8.6,4.6c1.5,0.7,3,1.5,4.5,2.2c1.5,0.7,3.1,1.3,4.6,2
				c0.8,0.3,1.5,0.7,2.3,1c0.8,0.3,1.6,0.6,2.4,0.9c1.6,0.6,3.2,1.2,4.8,1.8c3.3,1,6.6,2.2,10,3c6.7,1.9,13.8,3.2,20.9,4.2
				c1.8,0.2,3.6,0.4,5.4,0.6c1.8,0.1,3.6,0.3,5.5,0.4c1.8,0.2,3.7,0.1,5.5,0.2c1.8,0,3.7,0.1,5.5,0c14.8-0.2,29.8-2.5,44.1-7
				c7.2-2.2,14.2-5,20.9-8.2c6.8-3.2,13.2-7,19.3-11.1c1.5-1.1,3-2.1,4.5-3.1c1.5-1.1,2.9-2.2,4.4-3.3c1.5-1.1,2.8-2.3,4.2-3.5
				l2.1-1.8l1-0.9l1-0.9c1.3-1.2,2.6-2.5,4-3.7c1.3-1.2,2.5-2.6,3.8-3.8c2.6-2.5,4.8-5.3,7.1-7.9c4.4-5.5,8.7-11,12.2-16.8
				c1.9-2.8,3.5-5.8,5.1-8.7l0.6-1.1l0.6-1.1c0.4-0.7,0.7-1.5,1.1-2.2c0.7-1.5,1.5-2.9,2.2-4.4c5.4-11.8,9-23.5,11.3-34.6
				c2.3-11.1,3-21.5,3-30.7c0-9.2-0.9-17.2-1.9-23.7c-0.3-1.6-0.5-3.2-0.8-4.6c-0.2-1.5-0.6-2.8-0.8-4c-0.5-2.5-1-4.6-1.5-6.3
				c-0.5-1.7-0.8-3-1-3.9c-0.2-0.9-0.4-1.3-0.4-1.3L505.3,269.8z"/>
		</g>
		<g>
			<path d="M517.6,373.1c0,0-0.7,2-2.1,5.6c-0.7,1.8-1.7,4-2.8,6.6c-0.5,1.3-1.2,2.7-1.9,4.1c-0.7,1.5-1.5,3-2.3,4.6
				c-3.4,6.4-7.8,14.2-13.9,22.4c-6,8.2-13.5,17-22.8,25.5c-9.2,8.5-20.3,16.6-32.8,23.6c-0.8,0.4-1.6,0.9-2.4,1.3
				c-0.8,0.4-1.6,0.8-2.4,1.2c-1.6,0.8-3.3,1.6-4.9,2.5c-1.7,0.7-3.4,1.5-5.1,2.3c-0.9,0.4-1.7,0.8-2.6,1.1c-0.9,0.3-1.8,0.7-2.6,1
				c-1.8,0.7-3.5,1.4-5.3,2c-1.8,0.6-3.6,1.2-5.5,1.8c-0.9,0.3-1.8,0.6-2.8,0.9c-0.9,0.3-1.9,0.5-2.8,0.8c-1.9,0.5-3.7,1.1-5.7,1.5
				c-7.6,1.9-15.5,3.2-23.5,4.1c-8,0.8-16.2,1.1-24.5,0.8c-8.2-0.4-16.5-1.3-24.7-2.8c-8.2-1.6-16.3-3.7-24.3-6.4
				c-7.9-2.8-15.7-6-23.1-9.9c-1.9-0.9-3.7-2-5.5-3l-2.7-1.5c-0.9-0.5-1.8-1.1-2.7-1.6c-1.8-1.1-3.5-2.2-5.3-3.3
				c-1.7-1.2-3.4-2.4-5.1-3.5c-1.7-1.1-3.3-2.4-5-3.7l-2.4-1.9c-0.8-0.6-1.6-1.2-2.4-1.9c-1.6-1.3-3.1-2.7-4.7-4l-1.2-1l-1.1-1.1
				l-2.2-2.1c-3-2.7-5.7-5.7-8.5-8.6c-1.4-1.5-2.6-3-3.9-4.5l-1.9-2.3c-0.6-0.8-1.2-1.6-1.8-2.3c-1.2-1.6-2.4-3.1-3.6-4.7
				c-1.1-1.6-2.2-3.2-3.3-4.8c-0.5-0.8-1.1-1.6-1.6-2.4c-0.5-0.8-1-1.6-1.5-2.4c-1-1.6-2-3.2-3-4.9c-0.9-1.7-1.8-3.3-2.7-4.9
				c-0.4-0.8-0.9-1.6-1.3-2.5c-0.4-0.8-0.8-1.7-1.2-2.5c-0.8-1.7-1.6-3.3-2.4-5c-0.7-1.7-1.4-3.4-2.2-5c-0.4-0.8-0.7-1.6-1.1-2.5
				c-0.3-0.8-0.6-1.7-0.9-2.5c-0.6-1.7-1.2-3.3-1.9-5c-0.5-1.7-1.1-3.3-1.6-5c-0.5-1.6-1.1-3.3-1.5-4.9c-0.4-1.6-0.9-3.3-1.3-4.9
				l-0.3-1.2l-0.3-1.2c-0.2-0.8-0.3-1.6-0.5-2.4c-0.3-1.6-0.7-3.2-1-4.8c-0.3-1.6-0.5-3.2-0.8-4.7c-2-12.4-2.4-24-2-34.2
				c0.4-10.2,1.7-19,3.1-26.2c0.4-1.8,0.8-3.5,1.1-5.1c0.4-1.6,0.7-3.1,1.1-4.4c0.8-2.7,1.4-5.1,2-6.9c1.3-3.7,1.9-5.7,1.9-5.7
				l0.3,0.1c0,0-0.6,2-1.7,5.7c-0.5,1.9-1.1,4.2-1.7,7c-0.4,1.4-0.6,2.9-0.9,4.5c-0.3,1.6-0.7,3.3-1,5.1c-1.2,7.2-2.3,15.9-2.5,26.1
				c-0.2,10.1,0.5,21.5,2.6,33.8c0.3,1.5,0.6,3.1,0.8,4.6c0.3,1.5,0.7,3.1,1.1,4.7c0.2,0.8,0.4,1.6,0.5,2.4l0.3,1.2l0.3,1.2
				c0.4,1.6,0.9,3.2,1.3,4.8c0.4,1.6,1,3.2,1.5,4.8c0.5,1.6,1.1,3.2,1.6,4.9c0.6,1.6,1.3,3.2,1.9,4.9c0.3,0.8,0.6,1.6,1,2.5
				c0.3,0.8,0.7,1.6,1.1,2.4c0.7,1.6,1.4,3.3,2.2,4.9c0.8,1.6,1.6,3.2,2.4,4.9c0.4,0.8,0.8,1.6,1.2,2.5c0.4,0.8,0.9,1.6,1.3,2.4
				c0.9,1.6,1.8,3.2,2.7,4.9c1,1.6,2,3.2,3,4.8c0.5,0.8,1,1.6,1.5,2.4c0.5,0.8,1.1,1.6,1.6,2.3c1.1,1.6,2.2,3.1,3.3,4.7
				c1.2,1.5,2.4,3,3.5,4.6c0.6,0.8,1.2,1.5,1.8,2.3l1.9,2.2c1.3,1.5,2.5,3,3.8,4.5c2.7,2.9,5.3,5.8,8.3,8.5l2.2,2.1l1.1,1l1.1,1
				c1.5,1.3,3,2.6,4.5,4c0.7,0.7,1.6,1.3,2.3,1.9l2.4,1.9c1.6,1.3,3.2,2.5,4.9,3.7c1.7,1.2,3.3,2.4,5,3.5c1.7,1.1,3.4,2.2,5.2,3.3
				c0.9,0.5,1.7,1.1,2.6,1.6l2.7,1.5c1.8,1,3.6,2.1,5.4,3c7.3,3.8,14.9,7.1,22.7,9.9c7.8,2.7,15.8,4.8,23.9,6.5
				c8.1,1.5,16.3,2.5,24.4,2.9c8.2,0.3,16.3,0.1,24.2-0.6c8-0.9,15.8-2.1,23.3-3.9c1.9-0.4,3.8-1,5.6-1.5c0.9-0.3,1.9-0.5,2.8-0.8
				c0.9-0.3,1.8-0.6,2.7-0.9c1.8-0.6,3.6-1.2,5.4-1.7c1.8-0.7,3.5-1.3,5.3-2c0.9-0.3,1.7-0.7,2.6-1c0.9-0.4,1.7-0.7,2.6-1.1
				c1.7-0.7,3.4-1.5,5.1-2.2c1.6-0.8,3.3-1.6,4.9-2.4c0.8-0.4,1.6-0.8,2.4-1.2c0.8-0.4,1.6-0.9,2.3-1.3
				c12.5-6.8,23.6-14.8,32.8-23.2c9.2-8.4,16.8-17,22.9-25.1c6.1-8.1,10.5-15.8,14-22.2c0.8-1.6,1.6-3.2,2.3-4.6
				c0.7-1.4,1.4-2.8,2-4.1c1.1-2.6,2.1-4.8,2.9-6.6c1.4-3.6,2.1-5.6,2.1-5.6L517.6,373.1z"/>
		</g>
		<g>
			<path d="M459.7,471.1c0,0-0.5,0.3-1.4,0.9c-0.9,0.6-2.3,1.5-4.1,2.6c-0.9,0.6-1.9,1.2-3,1.9c-1.1,0.6-2.4,1.3-3.7,2.1
				c-1.4,0.7-2.8,1.6-4.4,2.4c-1.6,0.8-3.3,1.6-5.1,2.5c-7.2,3.4-16.1,7.3-26.7,10.6c-10.6,3.3-22.9,6-36.6,7.4
				c-13.6,1.3-28.6,1.3-44.1-0.7c-1.9-0.3-3.9-0.6-5.9-0.9c-1-0.2-2-0.3-3-0.5c-1-0.2-2-0.4-3-0.6c-2-0.4-4-0.8-6-1.3
				c-2-0.5-4-1-6-1.5c-1-0.3-2-0.5-3-0.8c-1-0.3-2-0.6-3-0.9c-2-0.6-4-1.3-6-1.9c-2-0.7-4-1.5-6-2.2c-1-0.4-2-0.7-3-1.1
				c-1-0.4-2-0.8-2.9-1.3c-2-0.9-4-1.7-5.9-2.6c-1.9-1-3.9-1.9-5.8-2.9c-2-0.9-3.9-2-5.8-3.1c-1.9-1.1-3.9-2.1-5.7-3.3
				c-1.9-1.2-3.7-2.3-5.6-3.5l-1.4-0.9l-1.4-0.9l-2.7-1.9c-3.7-2.5-7.2-5.3-10.8-8c-14-11.3-26.6-24.9-37-40
				c-5.1-7.6-9.9-15.5-13.8-23.7c-4-8.2-7.5-16.6-10.1-25.3c-2.7-8.6-4.9-17.3-6.3-26.1c-0.2-1.1-0.4-2.2-0.6-3.3
				c-0.1-1.1-0.3-2.2-0.4-3.3c-0.3-2.2-0.6-4.4-0.8-6.5c-0.2-2.2-0.3-4.3-0.5-6.5c-0.1-1.1-0.1-2.2-0.2-3.2c0-1.1-0.1-2.2-0.1-3.2
				c-0.2-4.3,0-8.6,0.1-12.8c0.1-2.1,0.3-4.2,0.4-6.3c0.1-1,0.1-2.1,0.2-3.1c0.1-1,0.2-2.1,0.4-3.1c0.2-2.1,0.5-4.1,0.7-6.1
				c0.3-2,0.7-4,1-6c0.2-1,0.3-2,0.5-3c0.2-1,0.4-2,0.6-2.9c0.4-2,0.9-3.9,1.3-5.8c3.9-15.3,9.4-29.3,15.7-41.5
				c6.3-12.2,13.6-22.6,20.6-31.2c1.7-2.2,3.5-4.2,5.2-6.2c0.9-1,1.7-1.9,2.5-2.9c0.8-0.9,1.7-1.8,2.6-2.7c1.7-1.7,3.3-3.4,4.9-4.9
				c1.6-1.5,3.2-2.9,4.6-4.3c0.7-0.7,1.4-1.3,2.2-2c0.7-0.6,1.4-1.2,2.1-1.8c1.4-1.1,2.7-2.2,3.8-3.2c1.2-1,2.4-1.8,3.4-2.6
				c1.1-0.8,2-1.5,2.9-2.1c0.9-0.6,1.6-1.2,2.3-1.7c0.7-0.5,1.2-0.8,1.7-1.1c0.9-0.6,1.4-0.9,1.4-0.9l0.2,0.2c0,0-0.5,0.3-1.4,1
				c-0.4,0.3-1,0.7-1.7,1.2c-0.6,0.5-1.4,1.1-2.2,1.7c-0.8,0.7-1.8,1.4-2.8,2.2c-1,0.8-2.2,1.7-3.3,2.7c-1.2,1-2.4,2.1-3.7,3.3
				c-0.7,0.6-1.4,1.2-2.1,1.8c-0.7,0.6-1.4,1.3-2.1,2c-1.4,1.4-2.9,2.8-4.5,4.4c-1.5,1.6-3.1,3.3-4.7,5c-0.8,0.9-1.7,1.7-2.5,2.7
				c-0.8,0.9-1.6,1.9-2.5,2.9c-1.7,2-3.4,4-5.1,6.2c-6.8,8.7-13.7,19.1-19.8,31.2c-6.1,12.1-11.4,26-15.1,41.1
				c-0.4,1.9-0.8,3.8-1.2,5.7c-0.2,1-0.4,1.9-0.6,2.9c-0.2,1-0.3,2-0.5,2.9c-0.3,2-0.6,3.9-1,5.9c-0.2,2-0.5,4-0.7,6
				c-0.1,1-0.2,2-0.3,3c-0.1,1-0.1,2-0.2,3.1c-0.1,2.1-0.3,4.1-0.4,6.2c0,4.2-0.3,8.4,0,12.6c0,1.1,0.1,2.1,0.1,3.2
				c0,1.1,0.1,2.1,0.2,3.2c0.2,2.1,0.3,4.3,0.5,6.4c0.2,2.1,0.5,4.3,0.7,6.4c0.1,1.1,0.3,2.2,0.4,3.2c0.2,1.1,0.4,2.1,0.5,3.2
				c1.3,8.6,3.5,17.2,6.1,25.7c2.6,8.5,6,16.9,9.8,25c3.8,8.2,8.4,16,13.5,23.5c10.1,15,22.5,28.5,36.3,39.8c3.5,2.7,6.9,5.6,10.6,8
				l2.7,1.9l1.4,0.9l1.4,0.9c1.9,1.2,3.7,2.3,5.6,3.5c1.8,1.2,3.8,2.2,5.7,3.3c1.9,1.1,3.8,2.2,5.7,3.1c1.9,1,3.9,1.9,5.8,2.9
				c1.9,0.9,3.9,1.7,5.9,2.6c1,0.4,1.9,0.9,2.9,1.3c1,0.4,2,0.8,3,1.1c2,0.7,3.9,1.5,5.9,2.2c2,0.6,4,1.3,5.9,1.9c1,0.3,2,0.7,3,0.9
				c1,0.3,2,0.5,3,0.8c2,0.5,3.9,1.1,5.9,1.6c2,0.4,3.9,0.9,5.9,1.3c1,0.2,1.9,0.4,2.9,0.6c1,0.2,2,0.3,2.9,0.5
				c1.9,0.3,3.9,0.7,5.8,1c15.5,2.1,30.3,2.3,43.9,1c13.6-1.3,25.8-3.9,36.4-7.1c10.6-3.1,19.5-7,26.7-10.3c1.8-0.9,3.5-1.7,5.1-2.5
				c1.6-0.8,3-1.6,4.4-2.4c1.4-0.7,2.6-1.4,3.8-2.1c1.2-0.6,2.1-1.3,3.1-1.8c1.8-1.1,3.2-2,4.1-2.6c0.9-0.6,1.4-0.9,1.4-0.9
				L459.7,471.1z"/>
		</g>
		<g>
			<path d="M228.9,477.7c0,0-0.5-0.4-1.5-1.1c-1-0.8-2.4-1.8-4.2-3.4c-1.8-1.5-4-3.4-6.6-5.7c-1.2-1.2-2.6-2.4-4-3.8
				c-0.7-0.7-1.4-1.4-2.2-2.1c-0.4-0.4-0.8-0.7-1.1-1.1c-0.4-0.4-0.7-0.8-1.1-1.2c-1.5-1.6-3.1-3.3-4.8-5c-0.4-0.4-0.8-0.9-1.3-1.3
				c-0.4-0.5-0.8-0.9-1.2-1.4c-0.8-1-1.7-2-2.6-3c-0.9-1-1.7-2-2.6-3.1c-0.9-1.1-1.7-2.2-2.6-3.3c-1.7-2.3-3.6-4.6-5.4-7.1
				c-7.2-10-14.4-21.9-20.6-35.8c-0.8-1.7-1.5-3.5-2.3-5.3c-0.8-1.8-1.4-3.6-2.1-5.4c-0.7-1.8-1.5-3.7-2.1-5.6
				c-0.6-1.9-1.3-3.8-1.9-5.8c-0.3-1-0.6-1.9-0.9-2.9c-0.3-1-0.6-2-0.8-3c-0.6-2-1.1-4-1.7-6c-0.5-2-1-4.1-1.4-6.2
				c-0.5-2.1-1-4.2-1.3-6.3c-0.4-2.1-0.8-4.3-1.1-6.4c-0.4-2.2-0.6-4.4-0.9-6.6c-0.6-4.4-0.9-8.9-1.3-13.4c-0.1-2.3-0.2-4.6-0.3-6.9
				c0-1.1-0.1-2.3-0.1-3.5c0-1.2,0-2.3,0-3.5c0-2.3,0.1-4.7,0.1-7c0.1-2.3,0.3-4.7,0.4-7.1c0.8-9.4,2-19,4.2-28.5
				c0.3-1.2,0.5-2.4,0.8-3.6c0.3-1.2,0.6-2.4,0.9-3.6c0.6-2.4,1.2-4.8,1.9-7.1c1.5-4.7,2.9-9.5,4.7-14.1c1.7-4.7,3.7-9.3,5.7-13.9
				c1.1-2.3,2.2-4.5,3.3-6.8c0.6-1.1,1.1-2.3,1.7-3.4l1.8-3.3c4.8-8.9,10.4-17.3,16.5-25.4l4.6-6c1.6-1.9,3.3-3.8,4.9-5.8
				c0.8-1,1.6-1.9,2.5-2.9l2.6-2.8c1.8-1.8,3.4-3.7,5.3-5.4c7.2-7.1,14.9-13.6,22.9-19.5c8.1-5.9,16.5-11.1,25.1-15.8
				c2.2-1.1,4.4-2.2,6.5-3.3c1.1-0.5,2.2-1.1,3.3-1.6c1.1-0.5,2.2-1,3.3-1.5c2.2-1,4.4-2,6.6-2.8c2.2-0.9,4.5-1.7,6.7-2.6
				c9-3.1,17.9-5.9,26.9-7.7c1.1-0.2,2.2-0.5,3.3-0.7c1.1-0.2,2.2-0.4,3.3-0.6c2.2-0.4,4.4-0.8,6.6-1.1c2.2-0.3,4.4-0.5,6.6-0.8
				c1.1-0.1,2.2-0.3,3.3-0.4c1.1-0.1,2.2-0.2,3.3-0.2c17.3-1.4,33.9-0.6,48.9,1.8c15,2.3,28.5,6.2,40,10.5c1.4,0.6,2.9,1.1,4.2,1.6
				c1.4,0.5,2.8,1.1,4.1,1.7c2.6,1.2,5.2,2.3,7.6,3.4c2.4,1.2,4.7,2.3,6.8,3.5c1.1,0.6,2.2,1.1,3.2,1.7c1,0.6,2,1.1,2.9,1.7
				c1.9,1.1,3.7,2.1,5.4,3.1c1.7,1,3.2,2,4.6,3c1.4,0.9,2.8,1.8,4,2.6c1.2,0.8,2.3,1.6,3.2,2.3c3.8,2.8,5.8,4.2,5.8,4.2l-0.2,0.2
				c0,0-2.1-1.4-6-4.1c-1-0.7-2-1.4-3.3-2.2c-1.2-0.8-2.6-1.6-4-2.5c-1.5-0.9-3-1.8-4.7-2.8c-1.7-0.9-3.5-1.9-5.5-3
				c-1-0.5-2-1.1-3-1.6c-1-0.5-2.1-1-3.2-1.6c-2.2-1.1-4.5-2.2-6.9-3.3c-2.4-1-5-2.1-7.6-3.2c-1.3-0.6-2.7-1.1-4.1-1.6
				c-1.4-0.5-2.8-1-4.2-1.6c-11.5-4.1-24.9-7.7-39.8-9.8c-14.9-2.2-31.2-2.8-48.3-1.3c-1.1,0.1-2.1,0.2-3.2,0.3
				c-1.1,0.1-2.1,0.3-3.2,0.4c-2.2,0.3-4.3,0.6-6.5,0.8c-2.2,0.4-4.4,0.8-6.5,1.1c-1.1,0.2-2.2,0.4-3.3,0.6
				c-1.1,0.2-2.2,0.5-3.3,0.7c-8.8,1.8-17.7,4.5-26.5,7.6c-2.2,0.8-4.4,1.7-6.6,2.5c-2.2,0.8-4.4,1.8-6.5,2.8
				c-1.1,0.5-2.2,1-3.3,1.4c-1.1,0.5-2.2,1-3.2,1.6c-2.1,1.1-4.3,2.1-6.5,3.2c-8.5,4.5-16.8,9.7-24.9,15.4
				c-7.9,5.9-15.6,12.2-22.7,19.2c-1.8,1.7-3.5,3.6-5.2,5.3l-2.6,2.7c-0.9,0.9-1.7,1.9-2.5,2.8c-1.6,1.9-3.3,3.8-4.9,5.7l-4.6,5.9
				c-6,7.9-11.6,16.2-16.4,25l-1.8,3.3c-0.6,1.1-1.1,2.2-1.7,3.3c-1.1,2.2-2.2,4.4-3.3,6.7c-2,4.6-4.1,9.1-5.7,13.7
				c-1.8,4.6-3.3,9.3-4.8,13.9c-0.7,2.3-1.3,4.7-1.9,7.1c-0.3,1.2-0.6,2.3-0.9,3.5c-0.3,1.2-0.5,2.4-0.8,3.5
				c-2.2,9.4-3.5,18.9-4.3,28.3c-0.2,2.3-0.3,4.7-0.5,7c-0.1,2.3-0.1,4.6-0.2,7c0,1.2-0.1,2.3-0.1,3.5c0,1.1,0.1,2.3,0.1,3.4
				c0.1,2.3,0.1,4.6,0.2,6.8c0.3,4.5,0.6,9,1.2,13.4c0.3,2.2,0.5,4.4,0.8,6.5c0.4,2.2,0.7,4.3,1.1,6.4c0.3,2.1,0.8,4.2,1.3,6.3
				c0.5,2.1,0.9,4.1,1.4,6.2c0.5,2,1.1,4,1.6,6c0.3,1,0.5,2,0.8,3c0.3,1,0.6,1.9,0.9,2.9c0.6,1.9,1.2,3.8,1.9,5.7
				c0.6,1.9,1.4,3.7,2,5.6c0.7,1.8,1.4,3.7,2.1,5.4c0.8,1.8,1.5,3.5,2.3,5.2c6.1,13.8,13.2,25.8,20.2,35.7c1.7,2.6,3.6,4.9,5.3,7.1
				c0.9,1.1,1.7,2.3,2.6,3.3c0.9,1.1,1.8,2.1,2.6,3.1c0.9,1,1.7,2,2.5,3c0.4,0.5,0.8,1,1.2,1.4c0.4,0.5,0.8,0.9,1.3,1.4
				c1.7,1.8,3.2,3.5,4.8,5.1c0.4,0.4,0.8,0.8,1.1,1.2c0.4,0.4,0.8,0.7,1.1,1.1c0.7,0.7,1.5,1.4,2.2,2.1c1.4,1.4,2.7,2.6,4,3.8
				c2.5,2.3,4.7,4.2,6.5,5.7c1.8,1.6,3.2,2.6,4.2,3.4c1,0.8,1.4,1.1,1.4,1.1L228.9,477.7z"/>
		</g>
	</g>
	<g>
		<path d="M331.2,244.4c-20.3,0-40.3,0-60.2,0c-0.8-2.6-0.9-44.5-0.2-47.5c63.4,0,126.9,0,190.8,0c0,2.7,0.1,5.3,0.1,8
			c0,2.6,0,5.2,0,8.1c-3.6,0.4-7.1,0.1-10.6,0.2c-3.4,0-6.8,0-10.3,0c-3.5,0-7,0-10.6,0c-3.4,0-6.8,0-10.3,0c-3.5,0-7,0-10.6,0
			c-3.4,0-6.8,0-10.3,0c-3.5,0-7,0-10.6,0c-3.4,0-6.8,0-10.3,0c-3.5,0-7,0-10.6,0c-3.4,0-6.8,0-10.3,0c-3.5,0-7,0-10.6,0
			c-3.4,0-6.8,0-10.3,0c-3.5,0-7,0-10.6,0c-3.4,0-6.8,0-10.3,0c-3.5,0-7,0-10.6,0c-3.4,0-6.8,0-10.3,0c-3.5,0-7,0-10.7,0
			c0,5.2,0,10,0,15.2c11,0.2,21.8,0.1,32.6,0.1c10.8,0,21.5,0,32.5,0c0.1,0.9,0.3,1.7,0.3,2.5c0,12.5,0.1,25.1,0,37.6
			c0,1.5-0.4,3.1-0.9,4.5c-8.3,21.2-8.5,42.6-2.3,64.3c0.6,2.1,1.5,4,2.3,6.3c3.8-1.4,7.4-2.7,11.1-4c0.6,1.5,1.1,2.6,1.6,3.7
			c8.3,19.7,21.8,34.7,41.4,43.4c17.4,7.7,35.4,9,53.6,2.9c12.8-4.3,23.2-12.2,31.5-22.8c0.7-0.9,1.4-1.8,2.1-2.7
			c0.1-0.1,0.3-0.2,0.7-0.5c5.6,4.4,11.3,8.9,17.1,13.5c-0.8,1.1-1.4,2.1-2.1,3c-9.6,13.2-22.5,22-37.8,27
			c-30.4,9.9-59.1,6-85.6-11.7c-22-14.6-36.7-34.7-43-60.6c-1.9-8-2.8-16.1-2.8-24.3c0-20.6,0-41.2,0-61.8c0-1,0.1-2.1-0.1-3.1
			c-0.1-0.5-0.8-0.8-1.5-1.1"/>
		<path d="M507.6,258.3c-5.4,4.4-10.6,8.6-16.1,13.2c-0.4-0.6-0.6-1.1-0.9-1.5c-11.8-13.5-26.7-21.3-44.3-24
			c-13.9-2.2-27.5-0.9-40.4,5.1c-18.6,8.6-29.8,23.5-34.9,43.1c-3.3,12.7-2.8,25.4,1.7,37.9c0.2,0.6,0.4,1.2,0.5,1.8
			c0,0.1,0,0.2-0.2,0.8c-3.5,1.3-7.2,2.7-11,4.1c-2.2-4-3.4-8-4.2-12.2c-6.1-34.6,5.1-62.7,32.2-84.7c14.9-10.1,31-16.4,49.2-16.6
			c21.2-0.3,39.8,6.3,56.1,19.8C499.9,248.8,503.9,253.2,507.6,258.3z M377,259c0.3-0.2,0.7-0.4,1-0.7c6-7.3,12.7-13.8,20.7-18.9
			c0.2-0.1,0.3-0.4,0.9-1.1c-1.1,0.5-1.5,0.6-1.9,0.9c-8.1,4.8-14.7,11.3-20.3,18.8C377.2,258.3,377.2,258.7,377,259
			c-0.6,0.7-1.2,1.2-1.8,1.8c0.2,0.1,0.4,0.3,0.6,0.4C376.2,260.6,376.6,259.8,377,259z"/>
		<path d="M296.9,327.5c-2.1,0-3.9,0-6,0c0,5.7,0,11.2,0,17c-4.4,0-8.4,0-12.5,0c-0.7-2.3-0.7-45.9,0-48.6c4,0,8,0,12.4,0
			c0,6.5,0,12.8,0,19.5c6.7,0,0.6,0,7.3,0c0,4.1,0,8.2,0,12 M305.1,344.4c-0.4-16.2-0.5-32.4-0.2-48.6c4.2,0,2.1,0,6.4,0
			c0,16.3,0,32.4,0,48.8c-3,0,1.7,0-1.6,0 M314.5,344.8c-0.3-16.2-0.4-32.4-0.1-48.6c3.2,0,1.6,0,4.9,0c0,16.3,0,32.4,0,48.8
			c-2.3,0,1.3,0-1.2,0 M323.1,344.8c-0.1-16.2-0.2-32.4-0.1-48.6c1.4,0,0.7,0,2.2,0c0,16.3,0,32.4,0,48.8c-1,0,0.6,0-0.5,0
			 M327.4,344.8c-0.1-16.2-0.1-32.4,0-48.6c0.8,0,0.4,0,1.3,0c0,16.3,0,32.4,0,48.8c-0.6,0,0.3,0-0.3,0"/>
		<path d="M276,302c-2.3,2.5-4.4,4.8-6.7,7.3c-1-0.5-1.9-1-2.8-1.4c-6.8-2.9-14.9-2.3-19.7,4.5c-6.9,9.8,0.1,20.5,8.7,22.5
			c4.8,1.1,9.2,0.2,13.1-2.9c0.5-0.4,1-0.7,1.6-1.3c2.3,2.1,4.6,4.1,7.1,6.3c-3.9,5.3-8.7,8.8-15.1,9.7
			c-15.6,2.3-27.5-8.8-29.4-22.5c-2-14.3,8.1-27.7,22.2-29.9C262.4,293.1,271.7,296.1,276,302z"/>
		<path d="M614.4,327.4c0,3.3,0,6,0,9.1c7.6,0,15.1,0,23.1,0c0,1.5,0.1,2.7,0.1,3.8c0,1.1,0,2.3,0,3.4c-2.3,0.7-25.3,1-31.5,0.3
			c-0.1-13.2-0.1-26.5,0-40c10.5,0,20.7,0,31.2,0c0,2.3,0,4.6,0,7.2c-7.5,0-15,0-22.8,0c0,3,0,5.6,0,8.6c7.5,0,15,0,22.8,0
			c0,2.6,0,4.9,0,7.6C629.8,327.4,622.3,327.4,614.4,327.4z"/>
		<path d="M194.1,344.6c0-9.5,0-19.1,0-28.9c11.6,0,23.1,0,34.7,0c0,3.6,0,7.1,0,11c-7.5,0-14.9,0-22.5,0c0,2.9,0,5.5,0,8.4
			c7.9,0.3,15.7,0,23.8,0.2c0,3.1,0,6,0,9C228,345,198.6,345.2,194.1,344.6z"/>
		<path d="M174,344.6c-3.7,0-7.1,0-10.8,0c0-12.5,0-24.9,0-37.7c-4.9,0-9.5,0-14.2,0c0-3.9,0-7.4,0-10.9c2.2-0.6,34-0.8,38.6-0.2
			c0,3.5,0,7,0,10.9c-4.4,0-8.7,0-13.5,0C174,319.5,174.1,332,174,344.6z"/>
		<path d="M386.7,311.1c0-2.3,0-4.6,0-7c0.8-0.1,1.5-0.2,2.2-0.2c5.3,0,10.6,0,15.8,0c3.4,0,6.6,0.7,9.4,2.7
			c8.4,5.7,8.6,18,0.4,24.5c-0.9,0.7-1.8,1.3-2.9,2.1c1.9,3.5,3.7,6.9,5.8,10.9c-3,0-5.4,0.1-7.8-0.1c-0.7-0.1-1.5-1-1.9-1.7
			c-1.5-2.5-2.9-5-4.2-7.6c-0.7-1.4-1.7-1.9-3.2-1.9c-2,0.1-4.1,0-6.4,0c0,3.9,0,7.5,0,11.2c-2.6,0.7-4.9,0.4-7.4,0.3
			c0-6.2,0-12.3,0-18.7c0.9-0.1,1.9-0.2,2.9-0.2c4.6,0,9.1,0,13.7,0c1.2,0,2.5-0.1,3.7-0.4c3-0.7,5.1-3.4,5.1-6.6
			c0.1-3.2-1.6-5.6-4.7-6.5c-1.3-0.4-2.6-0.5-4-0.5c-5.2-0.1-10.4,0-15.5-0.1C387.5,311.3,387.3,311.2,386.7,311.1z"/>
		<path d="M584.3,344.3c-1.4,0-2.8,0-4.1,0c-0.5,0-1-0.1-1.7-0.2c-6.1-13.2-11.9-26.4-17.9-40.1c3.3,0,6.1,0,9.1,0
			c3.8,8.5,7.6,17,11.6,26.1c0.6-1.2,1-1.9,1.3-2.6c2.9-7,5.8-13.9,8.7-20.9c1.3-3.2,1-2.8,4.3-2.8c1.7,0,3.3,0,5,0
			c0.2,0,0.4,0.1,0.6,0.2C600.9,306.7,588.2,336.9,584.3,344.3z"/>
		<path d="M482,303.9c1.8,0,3.4,0,5.1,0c6.1,13.2,12.1,26.4,18.1,40.2c-3,0-5.4,0-7.7,0c-1.4,0-1.7-1-2.1-1.9
			c-2.4-5.4-4.8-10.8-7.2-16.2c-1.1-2.4-2.1-4.7-3.5-7.6c-4.2,8.7-7.5,17.2-11.4,25.6c-2.8,0-5.6,0-8.8,0
			C470.1,330.4,476.1,317.1,482,303.9z"/>
		<path d="M519,311.4c-4.7,0-9.1,0-13.7,0c0-2.6,0-4.9,0-7.4c11.9,0,23.8,0,35.8,0c0.1,0.6,0.2,1.1,0.2,1.6c0,1.7,0,3.5,0,5.7
			c-4.4,0-8.7,0-13.3,0c0,11.1,0,21.8,0,32.9c-1.7,0-3,0-4.3,0c-1.3,0-2.7,0-4.5,0C518.9,333.3,519.2,322.5,519,311.4z"/>
		<path d="M436.6,336.6c7.6,0,14.7,0,22,0c0,2.6,0,4.9,0,7.3c-10,0-19.8,0-29.8,0c0-8,0-15.8,0-23.8c10,0,19.8,0,29.9,0
			c0,2.4,0,4.6,0,7.2c-7.3,0-14.5,0-21.8,0C436.1,330.5,436.5,333.4,436.6,336.6z"/>
		<path d="M230.3,295.8c0,3.6,0,6.9,0,10.3c-2.6,0.8-31.3,1-36.2,0.3c-0.3-3.4-0.1-6.8-0.2-10.2
			C196.3,295.4,224.9,295.2,230.3,295.8z"/>
		<path d="M547.6,304c2.8,0,5.4,0,7.9,0c0.7,2.4,0.8,36.5,0.2,40.1c-2.6,0-5.2,0-8.1,0C547.6,330.7,547.6,317.5,547.6,304z"/>
		<path d="M454.5,220.7c-0.3,1.8-1.3,1.4-2.2,1.4c-5.3-0.1-10.6-0.4-15.8-0.3c-38.4,0.9-72.8,29.1-81.8,66
			c-2.6,10.8-3.6,21.6-2.7,32.7c0.1,0.7,0,1.4-0.2,2.2c-0.3-1.6-0.7-3.2-0.8-4.8c-1.3-16,0.6-31.6,6.9-46.5
			c3.6-8.5,9.2-15.7,15.5-22.3c11.8-12.4,25.5-21.7,41.9-26.8c12.1-3.7,24.4-4.1,36.9-2.2C453.1,220.1,453.7,220.4,454.5,220.7z"/>
		<path d="M506.4,385.5c-0.3,0.6-0.5,1-0.8,1.4c-13.8,18.1-31.7,29.1-54.3,32c-17.3,2.3-34-0.1-50.2-6.5c-4.2-1.7-8.3-3.6-12.5-5.3
			c0.1-0.2,0.1-0.4,0.2-0.6c0.6,0.2,1.2,0.3,1.7,0.5c10.4,4.5,21.2,7.7,32.4,9c31.6,3.7,58.9-5.2,81-28.6c0.6-0.6,1.1-1.2,1.7-1.8
			C505.7,385.6,506,385.6,506.4,385.5z"/>
		<path d="M637.6,297.6c-78.1,0-155.8,0-233.5,0c0-0.2-0.1-0.4-0.1-0.6c0.7-0.1,1.4-0.4,2.1-0.4c3.8,0,7.7,0,11.5,0
			c36.9,0,73.8,0.1,110.6,0.1c35.2,0,70.4-0.1,105.7-0.1C635,296.6,636.3,296.2,637.6,297.6z"/>
		<path d="M428.8,304c10,0,19.7,0,29.5,0c0.6,2.4,0.5,4.7,0.2,7.2c-9.9,0-19.7,0-29.7,0C428.8,308.9,428.8,306.6,428.8,304z"/>
		<path d="M470.5,258.7c-1.1-0.5-2.2-0.9-3.2-1.4c-7.3-3.8-14.9-6.7-23.1-7.7c-25.7-3.2-53.7,5.4-67.7,34.1c-0.5,1-1,1.9-2,2.7
			c0.4-1,0.7-2.1,1.1-3.1c6.6-14.2,16.7-24.8,31.4-30.6c17.1-6.8,34.4-7.4,51.8-1.1c3.5,1.3,6.7,3.2,10,4.9c0.8,0.4,1.4,1,2.1,1.5
			C470.8,258.2,470.6,258.4,470.5,258.7z"/>
		<path d="M371.5,401.4c-0.9,1.4-1.6,2.9-2.6,4.1c-18,23.2-36.1,46.4-54.2,69.6c-8.1,10.5-16.1,21-24.2,31.5
			c-0.6,0.8-0.9,2.3-2.7,1.3c0.4-0.6,0.6-1.1,1-1.6c21.3-27.5,42.7-54.9,64-82.3c5.5-7,11.1-13.9,16.8-20.8
			C370.1,402.5,370.8,402,371.5,401.4L371.5,401.4z"/>
		<path d="M636.5,301.1c-77.1,0-154.2,0-231.3,0c0-0.1,0-0.2,0-0.3c77.1,0,154.2,0,231.2,0C636.4,300.9,636.5,301,636.5,301.1z"/>
		<path d="M355.1,267.3c0.2-1,0.3-2,0.7-2.9c0.8-1.8,1.6-3.6,2.7-5.2c8.3-12.2,18.8-21.9,31.6-29.2c0.5-0.3,1-0.5,1.8-0.3
			c-0.6,0.5-1.2,0.9-1.9,1.4c-6.8,4.4-12.4,9.9-17.3,16.3c-3.3,4.4-6.5,8.8-10.1,13C360.4,262.8,357.7,264.9,355.1,267.3z"/>
		<path d="M378.9,409c-13.7,18.2-28.2,35.7-42.8,53.1c-0.2-0.1-0.3-0.2-0.4-0.2c0-0.1-0.1-0.2-0.1-0.3c9.2-11.8,18.4-23.7,27.8-35.4
			c4.8-6,9.9-11.9,14.9-17.8C378.5,408.6,378.7,408.8,378.9,409z"/>
		<path d="M503,236.9c0.9-1.4,1.6-2.8,2.6-4.1c18.1-23.2,36.2-46.3,54.3-69.5c8.1-10.4,16.2-21,24.3-31.4c0.6-0.8,0.9-2.3,2.7-1.3
			c-0.4,0.6-0.6,1.1-1,1.6c-21.4,27.4-42.7,54.9-64.1,82.3c-5.5,7-11.2,13.9-16.8,20.8C504.4,235.8,503.6,236.3,503,236.9L503,236.9
			z"/>
		<path d="M495.6,229.3c13.7-18.2,28.3-35.6,42.9-53c0.2,0.1,0.3,0.2,0.4,0.2c0,0.1,0.1,0.2,0.1,0.3c-9.3,11.8-18.5,23.6-27.8,35.4
			c-4.8,6-9.9,11.8-14.9,17.7C496,229.6,495.8,229.5,495.6,229.3z"/>
		<path d="M505.4,347.9c-33.3,0-66.5,0-99.8,0c0-0.1,0-0.1,0-0.2c33.3,0,66.5,0,99.8,0C505.4,347.7,505.4,347.8,505.4,347.9z"/>
		<path d="M383.7,369.6c-6.6-6.9-11.7-14.3-15.8-22.3c0.2-0.2,0.3-0.3,0.5-0.5c0.4,0.2,0.9,0.3,1.1,0.6c4,7.6,9.1,14.5,14.4,21.2
			C383.8,368.6,383.8,368.8,383.7,369.6z"/>
		<path d="M371.5,401.5c0.3-0.7,0.6-1.3,1-2c0.2,0.1,0.4,0.3,0.5,0.4C372.5,400.4,372,400.9,371.5,401.5L371.5,401.5z"/>
	</g>
</g>
</svg>
