<svg id="Calque_1" enable-background="new 0 0 850.4 566.9" version="1.1" viewBox="0 0 850.4 566.9" xmlns="http://www.w3.org/2000/svg">
 <g id="g34" transform="translate(47.641 -27.791)">
  <path id="path6" d="m331.2 244.4h-60.2c-0.8-2.6-0.9-44.5-0.2-47.5h190.8c0 2.7 0.1 5.3 0.1 8v8.1c-3.6 0.4-7.1 0.1-10.6 0.2h-10.3-10.6-10.3-10.6-10.3-10.6-10.3-10.6-10.3-10.6-10.3-10.6-10.3-10.6-10.3-10.7v15.2c11 0.2 21.8 0.1 32.6 0.1h32.5c0.1 0.9 0.3 1.7 0.3 2.5 0 12.5 0.1 25.1 0 37.6 0 1.5-0.4 3.1-0.9 4.5-8.3 21.2-8.5 42.6-2.3 64.3 0.6 2.1 1.5 4 2.3 6.3 3.8-1.4 7.4-2.7 11.1-4 0.6 1.5 1.1 2.6 1.6 3.7 8.3 19.7 21.8 34.7 41.4 43.4 17.4 7.7 35.4 9 53.6 2.9 12.8-4.3 23.2-12.2 31.5-22.8 0.7-0.9 1.4-1.8 2.1-2.7 0.1-0.1 0.3-0.2 0.7-0.5 5.6 4.4 11.3 8.9 17.1 13.5-0.8 1.1-1.4 2.1-2.1 3-9.6 13.2-22.5 22-37.8 27-30.4 9.9-59.1 6-85.6-11.7-22-14.6-36.7-34.7-43-60.6-1.9-8-2.8-16.1-2.8-24.3v-61.8c0-1 0.1-2.1-0.1-3.1-0.1-0.5-0.8-0.8-1.5-1.1"/>
  <path id="path7" d="m507.6 258.3c-5.4 4.4-10.6 8.6-16.1 13.2-0.4-0.6-0.6-1.1-0.9-1.5-11.8-13.5-26.7-21.3-44.3-24-13.9-2.2-27.5-0.9-40.4 5.1-18.6 8.6-29.8 23.5-34.9 43.1-3.3 12.7-2.8 25.4 1.7 37.9 0.2 0.6 0.4 1.2 0.5 1.8 0 0.1 0 0.2-0.2 0.8-3.5 1.3-7.2 2.7-11 4.1-2.2-4-3.4-8-4.2-12.2-6.1-34.6 5.1-62.7 32.2-84.7 14.9-10.1 31-16.4 49.2-16.6 21.2-0.3 39.8 6.3 56.1 19.8 4.6 3.7 8.6 8.1 12.3 13.2zm-130.6 0.7c0.3-0.2 0.7-0.4 1-0.7 6-7.3 12.7-13.8 20.7-18.9 0.2-0.1 0.3-0.4 0.9-1.1-1.1 0.5-1.5 0.6-1.9 0.9-8.1 4.8-14.7 11.3-20.3 18.8-0.2 0.3-0.2 0.7-0.4 1-0.6 0.7-1.2 1.2-1.8 1.8 0.2 0.1 0.4 0.3 0.6 0.4 0.4-0.6 0.8-1.4 1.2-2.2z"/>
  <path id="path20" d="m454.5 220.7c-0.3 1.8-1.3 1.4-2.2 1.4-5.3-0.1-10.6-0.4-15.8-0.3-38.4 0.9-72.8 29.1-81.8 66-2.6 10.8-3.6 21.6-2.7 32.7 0.1 0.7 0 1.4-0.2 2.2-0.3-1.6-0.7-3.2-0.8-4.8-1.3-16 0.6-31.6 6.9-46.5 3.6-8.5 9.2-15.7 15.5-22.3 11.8-12.4 25.5-21.7 41.9-26.8 12.1-3.7 24.4-4.1 36.9-2.2 0.9 0 1.5 0.3 2.3 0.6z"/>
  <path id="path21" d="m506.4 385.5c-0.3 0.6-0.5 1-0.8 1.4-13.8 18.1-31.7 29.1-54.3 32-17.3 2.3-34-0.1-50.2-6.5-4.2-1.7-8.3-3.6-12.5-5.3 0.1-0.2 0.1-0.4 0.2-0.6 0.6 0.2 1.2 0.3 1.7 0.5 10.4 4.5 21.2 7.7 32.4 9 31.6 3.7 58.9-5.2 81-28.6 0.6-0.6 1.1-1.2 1.7-1.8 0.1 0 0.4 0 0.8-0.1z"/>
  <path id="path24" d="m470.5 258.7c-1.1-0.5-2.2-0.9-3.2-1.4-7.3-3.8-14.9-6.7-23.1-7.7-25.7-3.2-53.7 5.4-67.7 34.1-0.5 1-1 1.9-2 2.7 0.4-1 0.7-2.1 1.1-3.1 6.6-14.2 16.7-24.8 31.4-30.6 17.1-6.8 34.4-7.4 51.8-1.1 3.5 1.3 6.7 3.2 10 4.9 0.8 0.4 1.4 1 2.1 1.5-0.1 0.2-0.3 0.4-0.4 0.7z"/>
  <path id="path27" d="m355.1 267.3c0.2-1 0.3-2 0.7-2.9 0.8-1.8 1.6-3.6 2.7-5.2 8.3-12.2 18.8-21.9 31.6-29.2 0.5-0.3 1-0.5 1.8-0.3-0.6 0.5-1.2 0.9-1.9 1.4-6.8 4.4-12.4 9.9-17.3 16.3-3.3 4.4-6.5 8.8-10.1 13-2.2 2.4-4.9 4.5-7.5 6.9z"/>
  <path id="path32" d="m383.7 369.6c-6.6-6.9-11.7-14.3-15.8-22.3l0.5-0.5c0.4 0.2 0.9 0.3 1.1 0.6 4 7.6 9.1 14.5 14.4 21.2-0.1 0-0.1 0.2-0.2 1z"/>
  <path id="path33" d="m371.5 401.5c0.3-0.7 0.6-1.3 1-2 0.2 0.1 0.4 0.3 0.5 0.4-0.5 0.5-1 1-1.5 1.6z"/>
 </g>
</svg>
